#!OML:ASF E:/inclinewalkrobotboard/Project1/Captureday1/Session1/subject1.ASF
:FULLY-SPECIFIED
:DEGREES
363
root 0 0 0 17.42865488876268 -4.394083458791336 -1.4398917067185892
lowerback 21.413607711754022 -3.253863418150261 -1.1911607488076275
upperback -0.8284474702847149 -4.815107843818332 3.8459732444947345
thorax -12.702992441040244 -2.1458217806029505 5.236675266009808
lowerneck -9.629150449909462 9.379439369546333 18.636579646953553
upperneck 21.37568743407001 11.008755495944987 -8.32457490679449
head 9.803988403943773 5.954972577179635 -4.621462097930625
rclavicle 1.1771211894267603E-15 6.2809763673370206E-15
rhumerus 29.21934653487796 17.596993179808294 -72.9003551662709
rradius 103.58286927515778
rwrist -39.35254825151093
rhand -24.43904116173048 -24.293452287327277
rfingers 7.1250199999999975
rthumb 2.090454150448947 -54.71593712528868
lclavicle -2.9178164154746126E-15 6.51635030892207E-15
lhumerus 25.88886980018294 -34.954156579236 73.09581793341142
lradius 141.78286410417488
lwrist 8.70540932098143
lhand -33.28628296514876 8.216667899547787
lfingers 7.125019999999941
lthumb -6.458416989611518 38.67270945098956
rfemur -49.44508592164411 3.338423027378129 29.132708170117937
rtibia 45.12293555134745
rfoot -22.331870491975252 -3.895702011993553
rtoes -43.670892329789595
lfemur -36.446161557345405 -22.21255002676444 -13.062552001429633
ltibia 12.605085623528424
lfoot -45.457974468085965 7.223394644952939
ltoes -34.04153030359721
364
root 0 0 0 17.4255312155145 -4.407004235299503 -1.4360986669936264
lowerback 21.425888884561104 -3.2535368985806468 -1.1936665945002949
upperback -0.8248580973680371 -4.815377484512199 3.843433381226241
thorax -12.705803467871606 -2.1460367362839095 5.234802203468703
lowerneck -9.632143047496593 9.381391431367742 18.637033823047872
upperneck 21.367392083753245 11.012328914988418 -8.327517832664508
head 9.802254698410476 5.956202062210244 -4.622028588653498
rclavicle 1.0830922503219215E-15 6.233029708425422E-15
rhumerus 29.293961765805534 17.321015876370943 -72.73441564561755
rradius 103.16932149619394
rwrist -39.23843531705823
rhand -24.439125675962167 -24.35005211331081
rfingers 7.1250199999999975
rthumb 2.0907882873666015 -54.77269577131008
lclavicle -2.983863931652217E-15 6.471859588724978E-15
lhumerus 25.892955935993363 -34.98954869809086 73.1151047644211
lradius 141.8080370998825
lwrist 8.713872273081481
lhand -33.29611213227695 8.218102314818069
lfingers 7.125019999999941
lthumb -6.467942629508467 38.674731080668856
rfemur -49.72611592768518 3.4187898799470275 29.06796041075406
rtibia 45.22290497486726
rfoot -22.517103420704384 -3.8791900391755867
rtoes -43.54588567080168
lfemur -36.90407992006895 -21.9405172950439 -13.083815469728718
ltibia 13.356404992818156
lfoot -45.309026122903695 7.0011945933056285
ltoes -34.145289599744494
365
root 0 0 0 17.425777746452027 -4.413053797595131 -1.4327480582550276
lowerback 21.431737677930048 -3.2530879413152487 -1.1935442339697966
upperback -0.8229597566795874 -4.814805927307043 3.84351364039882
thorax -12.707054191578866 -2.145833836039755 5.234366334710986
lowerneck -9.633918646155344 9.380285593684663 18.635715503349736
upperneck 21.363382233476084 11.011029817116402 -8.32801818101952
head 9.800979756731287 5.955335259134045 -4.622042946114414
rclavicle 1.0075531835837345E-15 6.166762796517932E-15
rhumerus 29.343905268804555 17.182897589699753 -72.64628768416821
rradius 103.02629883393688
rwrist -39.21727067552062
rhand -24.44120579464287 -24.37976065449688
rfingers 7.1250199999999975
rthumb 2.0889337818935996 -54.80268592268792
lclavicle -3.059933588238348E-15 6.40764504887881E-15
lhumerus 25.89217340645211 -35.04997507799338 73.15302356934745
lradius 141.8478479579152
lwrist 8.731948901142388
lhand -33.30998163957398 8.222533954899662
lfingers 7.125019999999941
lthumb -6.48144976638368 38.68004203195477
rfemur -49.921835541852246 3.4781250658039955 29.03431824129145
rtibia 45.298054880671685
rfoot -22.669720354964802 -3.8603837742516447
rtoes -43.43830443012459
lfemur -37.482173371770585 -21.620010235254874 -13.087613430905751
ltibia 14.241967699381547
lfoot -45.150401638491665 6.749141133345329
ltoes -34.2733068957786
366
root 0 0 0 17.429174251830275 -4.412372016839024 -1.4299906577179256
lowerback 21.4314590621403 -3.2524954930882 -1.1909456659699513
upperback -0.8227054977101949 -4.813411477870879 3.846009521916325
thorax -12.706856711912753 -2.145223390711038 5.235228898093265
lowerneck -9.634440051929355 9.37640479690027 18.632835656944867
upperneck 21.363362726187223 11.005309446060657 -8.326296227226715
head 9.800145009085043 5.952578043770214 -4.621562155077974
rclavicle 9.568226970386E-16 6.088070677938191E-15
rhumerus 29.367569999118153 17.190270091082546 -72.64020884490577
rradius 103.16036454077971
rwrist -39.289416312681354
rhand -24.4453409873377 -24.3817464261612
rfingers 7.125019999999997
rthumb 2.084830738182829 -54.805075328988636
lclavicle -3.1410639997820696E-15 6.328617368053959E-15
lhumerus 25.88632584887722 -35.131167515775104 73.2069670300364
lradius 141.89912945820808
lwrist 8.758364867952627
lhand -33.32674147352437 8.229750751654123
lfingers 7.12501999999994
lthumb -6.4978155830190865 38.68835970307926
rfemur -50.032495175431386 3.515889934419423 29.03031560713842
rtibia 45.34783504286561
rfoot -22.786580429911467 -3.8401232209840277
rtoes -43.351495335831686
lfemur -38.14929644830554 -21.267281992499147 -13.0763269414937
ltibia 15.220381439896936
lfoot -44.98827687878375 6.476813575512846
ltoes -34.41775945375961
